<svg width="155" height="32" viewBox="0 0 155 32" fill="none" xmlns="http://www.w3.org/2000/svg">
<path d="M10.2273 7.54545V9.81818H0.818182V7.54545H10.2273ZM3.63636 25V5.13636C3.63636 4.13636 3.87121 3.30303 4.34091 2.63636C4.81061 1.9697 5.42045 1.4697 6.17045 1.13636C6.92045 0.803029 7.71212 0.636362 8.54545 0.636362C9.20455 0.636362 9.74242 0.689393 10.1591 0.795454C10.5758 0.901514 10.8864 0.999999 11.0909 1.09091L10.3182 3.40909C10.1818 3.36364 9.99242 3.30682 9.75 3.23864C9.51515 3.17045 9.20455 3.13636 8.81818 3.13636C7.93182 3.13636 7.29167 3.35985 6.89773 3.80682C6.51136 4.25379 6.31818 4.90909 6.31818 5.77273V25H3.63636ZM20.498 25.3636C18.9222 25.3636 17.5396 24.9886 16.3502 24.2386C15.1684 23.4886 14.2442 22.4394 13.5775 21.0909C12.9184 19.7424 12.5889 18.1667 12.5889 16.3636C12.5889 14.5455 12.9184 12.9583 13.5775 11.6023C14.2442 10.2462 15.1684 9.19318 16.3502 8.44318C17.5396 7.69318 18.9222 7.31818 20.498 7.31818C22.0737 7.31818 23.4525 7.69318 24.6343 8.44318C25.8237 9.19318 26.748 10.2462 27.407 11.6023C28.0737 12.9583 28.407 14.5455 28.407 16.3636C28.407 18.1667 28.0737 19.7424 27.407 21.0909C26.748 22.4394 25.8237 23.4886 24.6343 24.2386C23.4525 24.9886 22.0737 25.3636 20.498 25.3636ZM20.498 22.9545C21.6949 22.9545 22.6798 22.6477 23.4525 22.0341C24.2252 21.4205 24.7972 20.6136 25.1684 19.6136C25.5396 18.6136 25.7252 17.5303 25.7252 16.3636C25.7252 15.197 25.5396 14.1098 25.1684 13.1023C24.7972 12.0947 24.2252 11.2803 23.4525 10.6591C22.6798 10.0379 21.6949 9.72727 20.498 9.72727C19.301 9.72727 18.3161 10.0379 17.5434 10.6591C16.7707 11.2803 16.1987 12.0947 15.8275 13.1023C15.4563 14.1098 15.2707 15.197 15.2707 16.3636C15.2707 17.5303 15.4563 18.6136 15.8275 19.6136C16.1987 20.6136 16.7707 21.4205 17.5434 22.0341C18.3161 22.6477 19.301 22.9545 20.498 22.9545ZM32.6408 25V7.54545H35.2317V10.1818H35.4135C35.7317 9.31818 36.3075 8.61742 37.1408 8.07954C37.9741 7.54167 38.9135 7.27273 39.959 7.27273C40.1559 7.27273 40.4022 7.27651 40.6976 7.28409C40.9931 7.29167 41.2166 7.30303 41.3681 7.31818V10.0455C41.2772 10.0227 41.0688 9.98864 40.7431 9.94318C40.4249 9.89015 40.0878 9.86364 39.7317 9.86364C38.8832 9.86364 38.1256 10.0417 37.459 10.3977C36.7999 10.7462 36.2772 11.2311 35.8908 11.8523C35.512 12.4659 35.3226 13.1667 35.3226 13.9545V25H32.6408ZM44.687 25V7.54545H47.278V10.2727H47.5052C47.8689 9.34091 48.456 8.61742 49.2666 8.10227C50.0772 7.57955 51.0507 7.31818 52.187 7.31818C53.3386 7.31818 54.2969 7.57955 55.062 8.10227C55.8348 8.61742 56.437 9.34091 56.8689 10.2727H57.0507C57.4977 9.37121 58.1681 8.6553 59.062 8.125C59.956 7.58712 61.028 7.31818 62.278 7.31818C63.8386 7.31818 65.1151 7.80682 66.1075 8.78409C67.0999 9.75379 67.5961 11.2652 67.5961 13.3182V25H64.9143V13.3182C64.9143 12.0303 64.562 11.1098 63.8575 10.5568C63.153 10.0038 62.3234 9.72727 61.3689 9.72727C60.1416 9.72727 59.1908 10.0985 58.5166 10.8409C57.8423 11.5758 57.5052 12.5076 57.5052 13.6364V25H54.778V13.0455C54.778 12.053 54.456 11.2538 53.812 10.6477C53.1681 10.0341 52.3386 9.72727 51.3234 9.72727C50.6264 9.72727 49.9749 9.91288 49.3689 10.2841C48.7704 10.6553 48.2855 11.1705 47.9143 11.8295C47.5507 12.4811 47.3689 13.2348 47.3689 14.0909V25H44.687ZM79.7305 25.3636C78.0941 25.3636 76.685 24.9773 75.5032 24.2045C74.3214 23.4318 73.4123 22.3674 72.7759 21.0114C72.1395 19.6553 71.8214 18.1061 71.8214 16.3636C71.8214 14.5909 72.1471 13.0265 72.7986 11.6705C73.4577 10.3068 74.3744 9.24242 75.5486 8.47727C76.7305 7.70455 78.1092 7.31818 79.685 7.31818C80.9123 7.31818 82.0183 7.54545 83.0032 8C83.988 8.45455 84.7948 9.09091 85.4236 9.90909C86.0524 10.7273 86.4426 11.6818 86.5941 12.7727H83.9123C83.7077 11.9773 83.2532 11.2727 82.5486 10.6591C81.8517 10.0379 80.9123 9.72727 79.7305 9.72727C78.685 9.72727 77.7683 10 76.9805 10.5455C76.2001 11.0833 75.5903 11.8447 75.1509 12.8295C74.7191 13.8068 74.5032 14.9545 74.5032 16.2727C74.5032 17.6212 74.7153 18.7955 75.1395 19.7955C75.5714 20.7955 76.1774 21.572 76.9577 22.125C77.7456 22.678 78.6698 22.9545 79.7305 22.9545C80.4274 22.9545 81.06 22.8333 81.6282 22.5909C82.1964 22.3485 82.6774 22 83.0714 21.5455C83.4653 21.0909 83.7456 20.5455 83.9123 19.9091H86.5941C86.4426 20.9394 86.0676 21.8674 85.4691 22.6932C84.8782 23.5114 84.0941 24.1629 83.1168 24.6477C82.1471 25.125 81.0183 25.3636 79.7305 25.3636ZM95.7909 25.4091C94.6848 25.4091 93.6811 25.2008 92.7795 24.7841C91.878 24.3598 91.1621 23.75 90.6318 22.9545C90.1015 22.1515 89.8364 21.1818 89.8364 20.0455C89.8364 19.0455 90.0333 18.2348 90.4273 17.6136C90.8212 16.9848 91.3477 16.4924 92.0068 16.1364C92.6659 15.7803 93.3932 15.5152 94.1886 15.3409C94.9917 15.1591 95.7985 15.0152 96.6091 14.9091C97.6697 14.7727 98.5295 14.6705 99.1886 14.6023C99.8553 14.5265 100.34 14.4015 100.643 14.2273C100.954 14.053 101.109 13.75 101.109 13.3182V13.2273C101.109 12.1061 100.802 11.2348 100.189 10.6136C99.5826 9.99242 98.6621 9.68182 97.4273 9.68182C96.147 9.68182 95.1432 9.96212 94.4159 10.5227C93.6886 11.0833 93.1773 11.6818 92.8818 12.3182L90.3364 11.4091C90.7909 10.3485 91.397 9.52273 92.1545 8.93182C92.9197 8.33333 93.753 7.91667 94.6545 7.68182C95.5636 7.43939 96.4576 7.31818 97.3364 7.31818C97.897 7.31818 98.5409 7.38636 99.2682 7.52273C100.003 7.65151 100.711 7.92045 101.393 8.32954C102.083 8.73864 102.655 9.35606 103.109 10.1818C103.564 11.0076 103.791 12.1136 103.791 13.5V25H101.109V22.6364H100.973C100.791 23.0152 100.488 23.4205 100.064 23.8523C99.6394 24.2841 99.075 24.6515 98.3705 24.9545C97.6659 25.2576 96.8061 25.4091 95.7909 25.4091ZM96.2 23C97.2606 23 98.1545 22.7917 98.8818 22.375C99.6167 21.9583 100.17 21.4205 100.541 20.7614C100.92 20.1023 101.109 19.4091 101.109 18.6818V16.2273C100.995 16.3636 100.745 16.4886 100.359 16.6023C99.9803 16.7083 99.5409 16.803 99.0409 16.8864C98.5485 16.9621 98.0674 17.0303 97.5977 17.0909C97.1356 17.1439 96.7606 17.1894 96.4727 17.2273C95.7758 17.3182 95.1242 17.4659 94.5182 17.6705C93.9197 17.8674 93.4348 18.1667 93.0636 18.5682C92.7 18.9621 92.5182 19.5 92.5182 20.1818C92.5182 21.1136 92.8629 21.8182 93.5523 22.2955C94.2492 22.7652 95.1318 23 96.2 23ZM108.826 25V7.54545H111.417V10.1818H111.599C111.917 9.31818 112.492 8.61742 113.326 8.07954C114.159 7.54167 115.099 7.27273 116.144 7.27273C116.341 7.27273 116.587 7.27651 116.883 7.28409C117.178 7.29167 117.402 7.30303 117.553 7.31818V10.0455C117.462 10.0227 117.254 9.98864 116.928 9.94318C116.61 9.89015 116.273 9.86364 115.917 9.86364C115.068 9.86364 114.311 10.0417 113.644 10.3977C112.985 10.7462 112.462 11.2311 112.076 11.8523C111.697 12.4659 111.508 13.1667 111.508 13.9545V25H108.826ZM120.872 25V7.54545H123.463V10.1818H123.645C123.963 9.31818 124.539 8.61742 125.372 8.07954C126.205 7.54167 127.145 7.27273 128.19 7.27273C128.387 7.27273 128.633 7.27651 128.929 7.28409C129.224 7.29167 129.448 7.30303 129.599 7.31818V10.0455C129.508 10.0227 129.3 9.98864 128.974 9.94318C128.656 9.89015 128.319 9.86364 127.963 9.86364C127.114 9.86364 126.357 10.0417 125.69 10.3977C125.031 10.7462 124.508 11.2311 124.122 11.8523C123.743 12.4659 123.554 13.1667 123.554 13.9545V25H120.872ZM135.177 31.5455C134.722 31.5455 134.317 31.5076 133.961 31.4318C133.605 31.3636 133.359 31.2955 133.222 31.2273L133.904 28.8636C134.556 29.0303 135.131 29.0909 135.631 29.0455C136.131 29 136.575 28.7765 136.961 28.375C137.355 27.9811 137.715 27.3409 138.04 26.4545L138.54 25.0909L132.086 7.54545H134.995L139.813 21.4545H139.995L144.813 7.54545H147.722L140.313 27.5455C139.98 28.447 139.567 29.1932 139.075 29.7841C138.582 30.3826 138.01 30.8258 137.359 31.1136C136.715 31.4015 135.987 31.5455 135.177 31.5455ZM152.263 25.1818C151.702 25.1818 151.221 24.9811 150.82 24.5795C150.418 24.178 150.217 23.697 150.217 23.1364C150.217 22.5758 150.418 22.0947 150.82 21.6932C151.221 21.2917 151.702 21.0909 152.263 21.0909C152.823 21.0909 153.305 21.2917 153.706 21.6932C154.108 22.0947 154.308 22.5758 154.308 23.1364C154.308 23.5076 154.214 23.8485 154.024 24.1591C153.842 24.4697 153.596 24.7197 153.286 24.9091C152.983 25.0909 152.642 25.1818 152.263 25.1818Z" fill="#0E0B3D"/>
</svg>
